# xmcd
#
# Track frame offsets: 
#        150
#        13744
#        29310
#        46641
#        60204
#        77103
#        95935
#        112678
#        129156
#        150830
#        165712
#        180513
#
# Disc length: 2666 seconds
#
# Revision: 0
# Processed by: cddbd v1.5.2PL0 Copyright (c) Steve Scherf et al.
# Submitted via: ExactAudioCopy v0.99pb4
#
DISCID=7c0a680c
DTITLE=Евгений Долгов - Николаевский вальс
DYEAR=2009
DGENRE=Blues
TTITLE0=Николаевский вальс
TTITLE1=Воспоминание
TTITLE2=На причале
TTITLE3=Романс
TTITLE4=Южный город
TTITLE5=Здравствуй, Икар
TTITLE6=Корабел
TTITLE7=Море
TTITLE8=Песни старого яхт-клуба
TTITLE9=Школьная весна
TTITLE10=А Родина одна
TTITLE11=Цыганская ночь
EXTD=
EXTT0=
EXTT1=
EXTT2=
EXTT3=
EXTT4=
EXTT5=
EXTT6=
EXTT7=
EXTT8=
EXTT9=
EXTT10=
EXTT11=
PLAYORDER=
